HIERARCHY
ROOT Pelvis
{
	OFFSET 0.000000 0.000000 0.000000
	CHANNELS 6 Xposition Yposition Zposition Xrotation Yrotation Zrotation
	JOINT LeftUpLeg_virtual
	{
		OFFSET 0.000000 0.000000 0.000000
		CHANNELS 3 Xrotation Yrotation Zrotation
		JOINT LeftUpLeg
		{
			OFFSET 18.735201 -5.666702 -4.541200
			CHANNELS 3 Xrotation Yrotation Zrotation
			JOINT LeftLeg
			{
				OFFSET -0.021200 -31.938179 0.493100
				CHANNELS 3 Xrotation Yrotation Zrotation
				JOINT LeftFoot
				{
					OFFSET 0.021200 -31.938179 -4.336299
					CHANNELS 3 Xrotation Yrotation Zrotation
					JOINT LeftToeBase
					{
						OFFSET 0.943001 -26.722000 15.023500
						CHANNELS 3 Xrotation Yrotation Zrotation
						End Site
						{
							OFFSET 0 0 0
						}
					}
				}
			}
		}
	}
	JOINT RightUpLeg_virtual
	{
		OFFSET 0.000000 0.000000 0.000000
		CHANNELS 3 Xrotation Yrotation Zrotation
		JOINT RightUpLeg
		{
			OFFSET -18.735201 -5.666702 -4.541200
			CHANNELS 3 Xrotation Yrotation Zrotation
			JOINT RightLeg
			{
				OFFSET 0.018946 -31.938133 0.493100
				CHANNELS 3 Xrotation Yrotation Zrotation
				JOINT RightFoot
				{
					OFFSET -0.018946 -31.938126 -4.336299
					CHANNELS 3 Xrotation Yrotation Zrotation
					JOINT RightToeBase
					{
						OFFSET -0.943001 -26.722004 15.023500
						CHANNELS 3 Xrotation Yrotation Zrotation
						End Site
						{
							OFFSET 0 0 0
						}
					}
				}
			}
		}
	}
	JOINT Hips_virtual
	{
		OFFSET 0.000000 0.000000 0.000000
		CHANNELS 3 Xrotation Yrotation Zrotation
		JOINT Hips
		{
			OFFSET -0.000000 -0.000000 -0.000000
			CHANNELS 3 Xrotation Yrotation Zrotation
			JOINT Spine
			{
				OFFSET 0.000000 10.199997 -0.299500
				CHANNELS 3 Xrotation Yrotation Zrotation
				JOINT Spine1
				{
					OFFSET 0.000000 11.900002 -1.516600
					CHANNELS 3 Xrotation Yrotation Zrotation
					JOINT Spine2
					{
						OFFSET 0.000000 13.600006 -2.842500
						CHANNELS 3 Xrotation Yrotation Zrotation
						JOINT Neck_virtual
						{
							OFFSET 0.000000 0.000000 0.000000
							CHANNELS 3 Xrotation Yrotation Zrotation
							JOINT Neck
							{
								OFFSET 0.000000 9.624100 -2.890100
								CHANNELS 3 Xrotation Yrotation Zrotation
								JOINT Head
								{
									OFFSET 0.000000 14.068802 -1.351900
									CHANNELS 3 Xrotation Yrotation Zrotation
									End Site
									{
										OFFSET 0 0 0
									}
								}
							}
						}
						JOINT LeftShoulder_virtual
						{
							OFFSET 0.000000 0.000000 0.000000
							CHANNELS 3 Xrotation Yrotation Zrotation
							JOINT LeftShoulder
							{
								OFFSET 15.263000 10.923401 -0.547700
								CHANNELS 3 Xrotation Yrotation Zrotation
								JOINT LeftArm
								{
									OFFSET 25.438599 -2.830597 -13.032500
									CHANNELS 3 Xrotation Yrotation Zrotation
									JOINT LeftForeArm
									{
										OFFSET 29.960503 0.000000 0.000000
										CHANNELS 3 Xrotation Yrotation Zrotation
										JOINT LeftHand
										{
											OFFSET 27.849251 0.000000 0.000000
											CHANNELS 3 Xrotation Yrotation Zrotation
											End Site
											{
												OFFSET 0 0 0
											}
										}
									}
								}
							}
						}
						JOINT RightShoulder_virtual
						{
							OFFSET 0.000000 0.000000 0.000000
							CHANNELS 3 Xrotation Yrotation Zrotation
							JOINT RightShoulder
							{
								OFFSET -15.263000 10.923401 -0.547700
								CHANNELS 3 Xrotation Yrotation Zrotation
								JOINT RightArm
								{
									OFFSET -25.438599 -2.830597 -13.032500
									CHANNELS 3 Xrotation Yrotation Zrotation
									JOINT RightForeArm
									{
										OFFSET -29.960503 0.000000 0.000000
										CHANNELS 3 Xrotation Yrotation Zrotation
										JOINT RightHand
										{
											OFFSET -27.849251 0.000000 0.000000
											CHANNELS 3 Xrotation Yrotation Zrotation
											End Site
											{
												OFFSET 0 0 0
											}
										}
									}
								}
							}
						}
					}
				}
			}
		}
	}
}
MOTION
Frames: 11
Frame Time: 0.03333333
0.254312 55.875648 10.495743 0.000000 0.000000 0.000000 0.145579 0.090587 0.907408 -100.888868 -11.098339 12.490933 84.226642 3.936466 -0.120317 18.524178 -7.648962 -7.651207 0.000000 0.000000 0.000000 0.145579 0.090587 0.907408 -102.685665 12.052968 -8.143057 85.274051 -3.469075 -1.480388 19.297777 0.869904 9.046144 0.000000 0.000000 0.000000 0.145579 0.090587 0.907408 0.000000 0.000000 0.000000 10.430366 0.096007 -1.528295 -0.199257 0.213326 -0.355463 0.000000 0.000000 0.000000 -0.199585 0.248526 -0.300880 -0.401922 -0.512719 0.190457 0.000000 0.000000 0.000000 -0.199585 0.248526 -0.300880 0.823521 -15.262030 -7.868750 4.746712 -21.216453 -54.862241 0.000028 -62.197478 0.000032 0.000000 0.000000 0.000000 -0.199585 0.248526 -0.300880 3.171093 -4.378723 8.782886 -3.950243 37.253375 63.733636 -0.000023 55.137945 0.000028 0.000000 0.000000 0.000000 
0.232114 56.047691 10.373741 0.000000 0.000000 0.000000 -0.955807 0.061957 1.089737 -99.540643 -10.787996 12.617393 84.014551 3.901379 -0.117399 18.482596 -7.640297 -7.582347 0.000000 0.000000 0.000000 -0.955807 0.061957 1.089737 -101.584659 11.966006 -8.324937 85.212136 -3.258090 -1.485790 19.301237 0.831124 8.807753 0.000000 0.000000 0.000000 -0.955807 0.061957 1.089737 0.000000 0.000000 0.000000 10.001990 0.041781 -1.516995 0.733888 0.214279 -0.373962 0.000000 0.000000 0.000000 0.733708 0.243699 -0.324692 -0.305673 -0.492072 0.192361 0.000000 0.000000 0.000000 0.733708 0.243699 -0.324692 0.826525 -15.600728 -7.588858 4.308928 -21.403929 -54.419761 -0.000015 -61.023772 -0.000026 0.000000 0.000000 0.000000 0.733708 0.243699 -0.324692 3.082115 -3.976041 9.440668 -3.601792 37.650759 61.027419 0.000008 54.399021 -0.000007 0.000000 0.000000 0.000000 
0.226726 56.235840 10.249527 0.000000 0.000000 0.000000 -1.986964 0.054823 1.262489 -98.244813 -10.442206 12.702192 83.745967 3.882605 -0.112985 18.467312 -7.628328 -7.465817 0.000000 0.000000 0.000000 -1.986964 0.054823 1.262489 -100.491993 11.903083 -8.527565 85.107094 -3.066816 -1.491097 19.299319 0.797740 8.602320 0.000000 0.000000 0.000000 -1.986964 0.054823 1.262489 0.000000 0.000000 0.000000 9.597148 -0.001421 -1.498523 1.797858 0.233732 -0.404631 0.000000 0.000000 0.000000 1.797880 0.257127 -0.359928 -0.251780 -0.473866 0.204189 0.000000 0.000000 0.000000 1.797880 0.257127 -0.359928 0.840295 -16.448557 -7.432478 4.228453 -20.759382 -53.522961 -0.000040 -62.090326 -0.000032 0.000000 0.000000 0.000000 1.797880 0.257127 -0.359928 2.961170 -3.453756 10.001607 -3.229676 37.555348 57.967016 -0.000004 54.696616 -0.000000 0.000000 0.000000 0.000000 
0.237809 56.406502 10.123886 0.000000 0.000000 0.000000 -2.888002 0.046750 1.431512 -97.088106 -10.107728 12.759639 83.478982 3.884368 -0.110462 18.459889 -7.615628 -7.374400 0.000000 0.000000 0.000000 -2.888002 0.046750 1.431512 -99.517851 11.881351 -8.737525 84.985339 -2.870346 -1.494958 19.312146 0.771095 8.454682 0.000000 0.000000 0.000000 -2.888002 0.046750 1.431512 0.000000 0.000000 0.000000 9.215942 -0.041779 -1.475744 2.995972 0.259837 -0.454101 0.000000 0.000000 0.000000 2.996208 0.276800 -0.413456 -0.229860 -0.458600 0.212962 0.000000 0.000000 0.000000 2.996208 0.276800 -0.413456 0.854420 -17.480233 -7.466769 4.195343 -19.562936 -51.961269 0.000022 -66.074751 0.000008 0.000000 0.000000 0.000000 2.996208 0.276800 -0.413456 2.799018 -2.674955 10.502303 -3.038581 36.466462 54.263763 -0.000000 57.539686 0.000008 0.000000 0.000000 0.000000 
0.245653 56.514542 10.019409 0.000000 0.000000 0.000000 -3.594770 0.014360 1.597753 -96.193598 -9.847173 12.800178 83.293488 3.908202 -0.109651 18.452629 -7.607515 -7.332781 0.000000 0.000000 0.000000 -3.594770 0.014360 1.597753 -98.821581 11.882156 -8.897093 84.911682 -2.683637 -1.498258 19.358452 0.749037 8.318221 0.000000 0.000000 0.000000 -3.594770 0.014360 1.597753 0.000000 0.000000 0.000000 8.843352 -0.089820 -1.453496 4.275564 0.275761 -0.525326 0.000000 0.000000 0.000000 4.275954 0.285879 -0.488379 -0.202726 -0.445166 0.205082 0.000000 0.000000 0.000000 4.275954 0.285879 -0.488379 0.862133 -18.289017 -7.587574 3.632280 -18.468480 -49.500758 0.000062 -73.013295 0.000075 0.000000 0.000000 0.000000 4.275954 0.285879 -0.488379 2.589585 -1.496130 11.020419 -3.281674 34.308669 49.692099 -0.000001 64.121748 -0.000008 0.000000 0.000000 0.000000 
0.229555 56.548431 9.965096 0.000000 0.000000 0.000000 -4.065849 -0.044930 1.759570 -95.621398 -9.690000 12.827300 83.225609 3.962080 -0.108491 18.434691 -7.607646 -7.324864 0.000000 0.000000 0.000000 -4.065849 -0.044930 1.759570 -98.486178 11.877287 -8.958906 84.930254 -2.539467 -1.502861 19.427375 0.727895 8.133911 0.000000 0.000000 0.000000 -4.065849 -0.044930 1.759570 0.000000 0.000000 0.000000 8.453253 -0.153427 -1.434166 5.530837 0.267918 -0.611737 0.000000 0.000000 0.000000 5.531268 0.271137 -0.578271 -0.113977 -0.428458 0.176475 0.000000 0.000000 0.000000 5.531268 0.271137 -0.578271 0.884557 -18.678534 -7.480205 1.919055 -18.159287 -45.922063 -0.000020 -81.974633 -0.000028 0.000000 0.000000 0.000000 5.531268 0.271137 -0.578271 2.317844 0.181508 11.559950 -4.187591 31.664719 44.258103 -0.000004 74.229663 -0.000011 0.000000 0.000000 0.000000 
0.193976 56.538132 9.980949 0.000000 0.000000 0.000000 -4.267142 -0.107298 1.916556 -95.348560 -9.629115 12.848288 83.272061 4.019183 -0.108814 18.347859 -7.615119 -7.401278 0.000000 0.000000 0.000000 -4.267142 -0.107298 1.916556 -98.474730 11.902390 -8.960163 85.070443 -2.429188 -1.505540 19.431953 0.707147 7.987128 0.000000 0.000000 0.000000 -4.267142 -0.107298 1.916556 0.000000 0.000000 0.000000 8.021026 -0.239191 -1.415113 6.653565 0.224724 -0.698052 0.000000 0.000000 0.000000 6.653857 0.221574 -0.668089 0.079923 -0.401453 0.135533 0.000000 0.000000 0.000000 6.653857 0.221574 -0.668089 0.951442 -18.772145 -6.836192 -1.344712 -18.789784 -41.084940 -179.999076 -88.486767 -179.999035 0.000000 0.000000 0.000000 6.653857 0.221574 -0.668089 1.961435 2.361824 11.884393 -6.226112 29.340450 38.342093 0.000410 86.025071 -0.000271 0.000000 0.000000 0.000000 
0.162283 56.511314 10.080215 0.000000 0.000000 0.000000 -4.130877 -0.148991 2.070688 -95.389944 -9.634655 12.845603 83.418808 4.068860 -0.113251 18.143375 -7.626611 -7.607705 0.000000 0.000000 0.000000 -4.130877 -0.148991 2.070688 -98.771564 12.024752 -8.955528 85.332586 -2.329368 -1.503441 19.308050 0.691171 7.981745 0.000000 0.000000 0.000000 -4.130877 -0.148991 2.070688 0.000000 0.000000 0.000000 7.532594 -0.359584 -1.396972 7.571617 0.131968 -0.769280 0.000000 0.000000 0.000000 7.571506 0.123171 -0.743261 0.384787 -0.358316 0.092861 0.000000 0.000000 0.000000 7.571506 0.123171 -0.743261 1.073374 -18.710364 -5.604982 -6.380817 -19.969320 -34.980097 179.995866 -79.742377 179.995866 0.000000 0.000000 0.000000 7.571506 0.123171 -0.743261 1.547401 4.867803 11.542461 -10.410112 27.847696 32.748814 179.999896 82.991675 -179.999909 0.000000 0.000000 0.000000 
0.153097 56.457558 10.273914 0.000000 0.000000 0.000000 -3.554604 -0.172559 2.230446 -95.869000 -9.685258 12.770244 83.662632 4.180077 -0.119094 17.846374 -7.641050 -7.870019 0.000000 0.000000 0.000000 -3.554604 -0.172559 2.230446 -99.494806 12.248779 -8.912775 85.670496 -2.259385 -1.500383 19.113535 0.684516 8.060481 0.000000 0.000000 0.000000 -3.554604 -0.172559 2.230446 0.000000 0.000000 0.000000 6.993931 -0.534212 -1.391802 8.265431 -0.024493 -0.821414 0.000000 0.000000 0.000000 8.264590 -0.038629 -0.799980 0.762245 -0.302804 0.054276 0.000000 0.000000 0.000000 8.264590 -0.038629 -0.799980 1.237031 -18.360669 -3.994123 -13.374240 -21.363112 -27.831286 179.999896 -72.670488 179.999896 0.000000 0.000000 0.000000 8.264590 -0.038629 -0.799980 1.200435 7.283230 10.156200 -17.922970 27.389217 28.497019 -179.999691 74.564690 179.999745 0.000000 0.000000 0.000000 
0.171758 56.338615 10.564461 0.000000 0.000000 0.000000 -2.461734 -0.198124 2.420579 -96.912721 -9.788921 12.592455 84.026176 4.417482 -0.123144 17.496388 -7.660856 -8.117719 0.000000 0.000000 0.000000 -2.461734 -0.198124 2.420579 -100.804098 12.561875 -8.774627 86.066189 -2.229639 -1.499418 18.932636 0.690314 8.156224 0.000000 0.000000 0.000000 -2.461734 -0.198124 2.420579 0.000000 0.000000 0.000000 6.441809 -0.776460 -1.417223 8.767488 -0.248448 -0.864758 0.000000 0.000000 0.000000 8.765588 -0.267816 -0.847614 1.141001 -0.247705 0.020428 0.000000 0.000000 0.000000 8.765588 -0.267816 -0.847614 1.403189 -17.422860 -2.232275 -22.252189 -23.151905 -20.377659 179.999937 -67.499980 179.999923 0.000000 0.000000 0.000000 8.765588 -0.267816 -0.847614 1.050176 9.055071 7.766373 -28.923126 27.961251 26.235778 179.999964 68.955978 -179.999964 0.000000 0.000000 0.000000 
0.210523 56.126434 10.939632 0.000000 0.000000 0.000000 -0.852488 -0.226701 2.675004 -98.517713 -9.956638 12.332960 84.535516 4.759282 -0.129832 17.072574 -7.687310 -8.455769 0.000000 0.000000 0.000000 -0.852488 -0.226701 2.675004 -102.748824 13.019148 -8.560320 86.573010 -2.190761 -1.496381 18.764505 0.708489 8.340355 0.000000 0.000000 0.000000 -0.852488 -0.226701 2.675004 0.000000 0.000000 0.000000 5.933467 -1.072985 -1.480082 9.135965 -0.517005 -0.916290 0.000000 0.000000 0.000000 9.132899 -0.541054 -0.901834 1.434268 -0.205427 -0.012545 0.000000 0.000000 0.000000 9.132899 -0.541054 -0.901834 1.522140 -15.798199 -0.402613 -32.197484 -25.568878 -13.898307 -179.999964 -63.934491 -179.999964 0.000000 0.000000 0.000000 9.132899 -0.541054 -0.901834 1.066080 9.788352 4.932218 -41.630317 29.333460 25.605942 179.999991 65.376037 180.000005 0.000000 0.000000 0.000000 
